<svg width="40" height="40" viewBox="0 0 40 40" fill="none" xmlns="http://www.w3.org/2000/svg">
<circle cx="19.8419" cy="20.0392" r="19.7072" fill="#010034"/>
<path d="M19.8425 8.10425C13.2781 8.10425 7.90723 13.4632 7.90723 20.0635C7.90723 26.0311 12.2755 30.9843 17.9806 31.8794V23.5247H14.9491V20.0635H17.9806V17.4257C17.9806 14.43 19.759 12.7829 22.4922 12.7829C23.7931 12.7829 25.1538 13.0097 25.1538 13.0097V15.9577H23.6499C22.1699 15.9577 21.7044 16.8767 21.7044 17.8196V20.0635H25.0225L24.4854 23.5247H21.7044V31.8794C24.5169 31.4352 27.078 30.0002 28.9252 27.8333C30.7724 25.6666 31.7843 22.9107 31.7778 20.0635C31.7778 13.4632 26.407 8.10425 19.8425 8.10425Z" fill="#5F9BCE"/>
</svg>
