<svg width="18" height="18" viewBox="0 0 18 18" fill="none" xmlns="http://www.w3.org/2000/svg">
<path fill-rule="evenodd" clip-rule="evenodd" d="M13.6676 16.9978C11.9825 16.588 8.53293 15.4326 5.4056 12.3967C2.2783 9.36094 1.0881 6.01223 0.665915 4.37647C0.423296 3.43643 0.860196 2.52932 1.60101 2.01564L3.54311 0.669001C4.67945 -0.11892 6.26023 0.148449 7.05511 1.26301L8.27776 2.97745C8.79677 3.70519 8.61776 4.70264 7.87579 5.21711L6.90087 5.89312C7.04843 6.441 7.50734 7.56614 8.94458 8.96133C10.3818 10.3565 11.5409 10.802 12.1052 10.9452L12.8016 9.99877C13.3316 9.27859 14.3591 9.10473 15.1087 9.60855L16.8749 10.7955C18.023 11.5672 18.2984 13.1016 17.4867 14.2047L16.0995 16.0901C15.5704 16.8092 14.636 17.2334 13.6676 16.9978ZM6.58526 11.2516C9.42922 14.0124 12.5676 15.0607 14.073 15.4269C14.293 15.4803 14.559 15.3973 14.742 15.1487L16.1292 13.2634C16.3998 12.8958 16.308 12.3843 15.9252 12.127L14.1592 10.9401L13.4118 11.9558C13.1065 12.3708 12.5417 12.6964 11.884 12.5586C11.0632 12.3867 9.54592 11.8354 7.76493 10.1065C5.98395 8.37758 5.41597 6.90466 5.23887 6.10787C5.09698 5.46947 5.43234 4.9212 5.8599 4.62472L6.90613 3.89927L5.68345 2.18484C5.41849 1.81332 4.89156 1.7242 4.51278 1.98684L2.57069 3.33347C2.31457 3.51106 2.22906 3.76929 2.28419 3.98288C2.66137 5.44427 3.74134 8.49087 6.58526 11.2516Z" fill="#010034"/>
</svg>
