<svg width="40" height="40" viewBox="0 0 40 40" fill="none" xmlns="http://www.w3.org/2000/svg">
<circle cx="19.7072" cy="20.0392" r="19.7072" fill="#010034"/>
<path d="M21.4185 16.4244C18.7669 17.7846 15.7985 15.2491 16.7233 12.4159C17.6522 9.58177 21.5446 9.29148 22.88 11.958C23.7135 13.5945 23.0616 15.5983 21.4194 16.4277L21.4185 16.4244ZM17.8595 5.65451C20.5891 4.66171 23.7127 4.71313 26.05 6.74353C26.5418 7.14911 26.9316 7.66832 27.1813 8.25969C27.4144 9.01943 26.3519 8.1809 26.2092 8.0739C25.4702 7.56879 24.6723 7.16238 23.8296 6.85965C19.2248 5.45214 14.8695 8.0175 12.1789 12.0086C11.0816 13.767 10.2439 15.6771 9.69068 17.676C9.63843 17.9223 9.5613 18.1604 9.45762 18.3893C9.33735 18.6141 9.40122 17.7797 9.40122 17.7548C9.50075 16.9212 9.66082 16.0918 9.87647 15.279C11.1247 10.9296 13.89 7.30919 17.8595 5.65037V5.65451ZM17.8985 28.8739V19.1805C18.1747 19.2104 18.4335 19.2237 18.7105 19.2237C19.9679 19.2278 21.1988 18.882 22.2745 18.2342V28.8697C22.2745 29.7821 22.1053 30.4514 21.6947 30.8926C21.2842 31.3414 20.7019 31.5885 20.0923 31.5661C19.4918 31.5885 18.9137 31.3414 18.5106 30.8926C18.1051 30.4473 17.8936 29.7738 17.8936 28.8747L17.8985 28.8739Z" fill="#5F9BCE"/>
</svg>
