<svg width="40" height="40" viewBox="0 0 40 40" fill="none" xmlns="http://www.w3.org/2000/svg">
<circle cx="20.275" cy="20.0392" r="19.7072" fill="#010034"/>
<path fill-rule="evenodd" clip-rule="evenodd" d="M20.5528 9.21411C17.5375 9.21411 17.1594 9.22689 15.9752 9.28092C14.7935 9.33482 13.9864 9.52253 13.2802 9.79701C12.5501 10.0807 11.9309 10.4603 11.3136 11.0776C10.6964 11.6948 10.3168 12.314 10.0331 13.0441C9.75861 13.7503 9.57091 14.5574 9.51701 15.7391C9.46298 16.9234 9.4502 17.3015 9.4502 20.3168C9.4502 23.3321 9.46298 23.7101 9.51701 24.8944C9.57091 26.0761 9.75861 26.8832 10.0331 27.5894C10.3168 28.3195 10.6964 28.9387 11.3136 29.5559C11.9309 30.1732 12.5501 30.5528 13.2802 30.8366C13.9864 31.111 14.7935 31.2987 15.9752 31.3526C17.1594 31.4066 17.5375 31.4194 20.5528 31.4194C23.5681 31.4194 23.9462 31.4066 25.1304 31.3526C26.3122 31.2987 27.1192 31.111 27.8255 30.8366C28.5555 30.5528 29.1747 30.1732 29.792 29.5559C30.4093 28.9387 30.7889 28.3195 31.0727 27.5894C31.3471 26.8832 31.5348 26.0761 31.5886 24.8944C31.6427 23.7101 31.6555 23.3321 31.6555 20.3168C31.6555 17.3015 31.6427 16.9234 31.5886 15.7391C31.5348 14.5574 31.3471 13.7503 31.0727 13.0441C30.7889 12.314 30.4093 11.6948 29.792 11.0776C29.1747 10.4603 28.5555 10.0807 27.8255 9.79701C27.1192 9.52253 26.3122 9.33482 25.1304 9.28092C23.9462 9.22689 23.5681 9.21411 20.5528 9.21411ZM20.5528 11.2146C23.5173 11.2146 23.8686 11.2259 25.0392 11.2793C26.1217 11.3287 26.7096 11.5096 27.1008 11.6616C27.6191 11.863 27.9889 12.1036 28.3775 12.4921C28.766 12.8806 29.0065 13.2505 29.208 13.7687C29.36 14.16 29.5409 14.7478 29.5903 15.8303C29.6437 17.0011 29.6551 17.3522 29.6551 20.3168C29.6551 23.2812 29.6437 23.6325 29.5903 24.8032C29.5409 25.8856 29.36 26.4735 29.208 26.8648C29.0065 27.383 28.766 27.7529 28.3775 28.1414C27.9889 28.5299 27.6191 28.7705 27.1008 28.9719C26.7096 29.124 26.1217 29.3049 25.0392 29.3542C23.8687 29.4076 23.5176 29.419 20.5528 29.419C17.5881 29.419 17.237 29.4076 16.0664 29.3542C14.9839 29.3049 14.396 29.124 14.0048 28.9719C13.4866 28.7705 13.1167 28.5299 12.7282 28.1414C12.3397 27.7529 12.0991 27.383 11.8977 26.8648C11.7456 26.4735 11.5648 25.8856 11.5154 24.8032C11.462 23.6325 11.4507 23.2812 11.4507 20.3168C11.4507 17.3522 11.462 17.0011 11.5154 15.8303C11.5648 14.7478 11.7456 14.16 11.8977 13.7687C12.0991 13.2505 12.3397 12.8806 12.7282 12.4921C13.1167 12.1036 13.4866 11.863 14.0048 11.6616C14.396 11.5096 14.9839 11.3287 16.0664 11.2793C17.2371 11.2259 17.5883 11.2146 20.5528 11.2146ZM20.5528 24.0177C18.5089 24.0177 16.852 22.3607 16.852 20.3168C16.852 18.2728 18.5089 16.6159 20.5528 16.6159C22.5968 16.6159 24.2538 18.2728 24.2538 20.3168C24.2538 22.3607 22.5968 24.0177 20.5528 24.0177ZM20.5528 14.6154C17.404 14.6154 14.8515 17.168 14.8515 20.3168C14.8515 23.4655 17.404 26.0181 20.5528 26.0181C23.7016 26.0181 26.2542 23.4655 26.2542 20.3168C26.2542 17.168 23.7016 14.6154 20.5528 14.6154ZM26.4794 15.7225C27.2153 15.7225 27.8118 15.126 27.8118 14.3901C27.8118 13.6543 27.2153 13.0578 26.4794 13.0578C25.7437 13.0578 25.1472 13.6543 25.1472 14.3901C25.1472 15.126 25.7437 15.7225 26.4794 15.7225Z" fill="#5F9BCE"/>
</svg>
