<svg width="41" height="40" viewBox="0 0 41 40" fill="none" xmlns="http://www.w3.org/2000/svg">
<circle cx="20.4098" cy="20.0392" r="19.7072" fill="#010034"/>
<path d="M30.3429 14.8256C30.3529 15.0456 30.3579 15.2667 30.3579 15.4887C30.3579 22.2616 25.2022 30.0708 15.7763 30.0708C12.8818 30.0708 10.1875 29.2223 7.91943 27.7681C8.32089 27.8157 8.72831 27.8399 9.14218 27.8399C11.5435 27.8399 13.7531 27.0207 15.5076 25.6457C13.2644 25.6046 11.372 24.1227 10.7198 22.0866C11.0331 22.1466 11.3538 22.1788 11.6843 22.1788C12.1512 22.1788 12.6042 22.1159 13.0344 21.9989C10.6901 21.528 8.92307 19.4567 8.92307 16.9736C8.92307 16.9518 8.92307 16.9305 8.92361 16.9092C9.61453 17.2928 10.4046 17.5233 11.2451 17.55C9.86976 16.6311 8.96521 15.0624 8.96521 13.2841C8.96521 12.3449 9.21747 11.4646 9.65906 10.7078C12.1868 13.8084 15.9625 15.8485 20.2221 16.0626C20.1349 15.6874 20.0892 15.2964 20.0892 14.8944C20.0892 12.0643 22.384 9.76953 25.2141 9.76953C26.6891 9.76953 28.0204 10.3921 28.9551 11.3878C30.1229 11.1583 31.2192 10.7316 32.2094 10.1442C31.8268 11.3412 31.0149 12.3453 29.9563 12.9797C30.9931 12.8558 31.9815 12.5803 32.9004 12.1728C32.2134 13.2003 31.3441 14.1029 30.3429 14.8256Z" fill="#5F9BCE"/>
</svg>
